# xmcd
#
# Track frame offsets:
#	150
#	18456
#	42989
#	61530
#	82671
#	104323
#	121284
#	139019
#	158360
#	180388
#	196701
#	217104
#	246736
#
# Disc length: 3729 seconds
#
# Revision: 0
# Processed by: cddbd v1.5.1PL0 Copyright (c) Steve Scherf et al.
# Submitted via: dBpowerAMP V4.0
#
DISCID=a10e8f0d
DTITLE=Destiny's Child - Destiny Fulfilled
DYEAR=1900
DGENRE=
TTITLE0=Lose My Breath
TTITLE1=Destiny's Child Feat. T.I. and Lil' Wayne - Soldier
TTITLE2=Cater 2 U
TTITLE3=T-Shirt
TTITLE4=Is She The Reason
TTITLE5=Girl
TTITLE6=Bad Habit
TTITLE7=If
TTITLE8=Free
TTITLE9=Through With Love
TTITLE10=Love
TTITLE11=Game Over
TTITLE12=DATA
EXTD=
EXTT0=
EXTT1=
EXTT2=
EXTT3=
EXTT4=
EXTT5=
EXTT6=
EXTT7=
EXTT8=
EXTT9=
EXTT10=
EXTT11=
EXTT12=
PLAYORDER=
